<?xml version="1.0" encoding="utf-8"?>
<!-- Generator: Adobe Illustrator 22.0.1, SVG Export Plug-In . SVG Version: 6.00 Build 0)  -->
<svg version="1.1" id="Capa_1" xmlns="http://www.w3.org/2000/svg" xmlns:xlink="http://www.w3.org/1999/xlink" x="0px" y="0px"
	 viewBox="0 0 549 128" style="enable-background:new 0 0 549 128;" xml:space="preserve">
<style type="text/css">
	.st0{fill:url(#SVGID_1_);}
	.st1{fill:#383838;}
	.st2{fill:url(#SVGID_2_);}
	.st3{fill:#333333;}
</style>
<g>
	<linearGradient id="SVGID_1_" gradientUnits="userSpaceOnUse" x1="12.683" y1="0.6173" x2="108.2076" y2="127.3827">
		<stop  offset="0" style="stop-color:#3993FF"/>
		<stop  offset="0.9952" style="stop-color:#0071BC"/>
	</linearGradient>
	<polygon class="st0" points="66.3,64 117.1,23.6 117.1,7.3 3.8,7.3 3.8,120.7 117.1,120.7 117.1,36.6 	"/>
	<g>
		<g>
			<path class="st1" d="M166.3,69.1c-1.1-1-2.5-1.7-4.3-2.1c-1.8-0.4-4-0.7-6.8-0.7h-13.9c-2.7,0-4.9,0.2-6.7,0.7
				c-1.8,0.4-3.2,1.2-4.3,2.1c-1.1,1-1.8,2.3-2.3,3.9c-0.4,1.6-0.7,3.6-0.7,5.8v11.5c0,2.3,0.2,4.3,0.7,5.9c0.4,1.6,1.2,2.9,2.3,3.9
				c1.1,1,2.5,1.7,4.3,2.1c1.8,0.4,4,0.7,6.7,0.7h13.9c2.7,0,5-0.2,6.8-0.7c1.8-0.4,3.2-1.2,4.3-2.1c1.1-1,1.8-2.3,2.3-3.9
				c0.4-1.6,0.7-3.5,0.7-5.9V78.8c0-2.3-0.2-4.2-0.7-5.8C168.1,71.3,167.3,70,166.3,69.1z M161.1,89.9c0,1.2-0.1,2.2-0.3,2.9
				c-0.2,0.8-0.5,1.4-1,1.8c-0.5,0.4-1.1,0.8-1.9,0.9c-0.8,0.2-1.8,0.2-3,0.2h-13.2c-1.3,0-2.3-0.1-3.1-0.2
				c-0.8-0.2-1.4-0.5-1.9-0.9c-0.5-0.4-0.8-1.1-0.9-1.8c-0.2-0.8-0.2-1.7-0.2-2.9V79.2c0-1.1,0.1-2.1,0.2-2.8
				c0.2-0.8,0.5-1.4,0.9-1.8c0.5-0.5,1.1-0.8,1.9-1c0.8-0.2,1.8-0.3,3.1-0.3h13.2c1.2,0,2.2,0.1,3,0.3c0.8,0.2,1.4,0.5,1.9,1
				c0.5,0.5,0.8,1.1,1,1.8c0.2,0.8,0.3,1.7,0.3,2.8V89.9z"/>
			<polygon class="st1" points="173.1,73.3 188.5,73.3 188.5,102.8 196.7,102.8 196.7,73.3 212,73.3 212,66.3 173.1,66.3 			"/>
			<path class="st1" d="M254.8,69.1c-1.1-1-2.5-1.7-4.3-2.1c-1.8-0.4-4-0.7-6.8-0.7h-13.9c-2.7,0-4.9,0.2-6.7,0.7
				c-1.8,0.4-3.2,1.2-4.3,2.1c-1.1,1-1.8,2.3-2.3,3.9c-0.4,1.6-0.7,3.6-0.7,5.8v11.5c0,2.3,0.2,4.3,0.7,5.9c0.5,1.6,1.2,2.9,2.3,3.9
				c1.1,1,2.5,1.7,4.3,2.1c1.8,0.4,4,0.7,6.7,0.7h13.9c2.7,0,5-0.2,6.8-0.7c1.8-0.4,3.2-1.2,4.3-2.1c1.1-1,1.8-2.3,2.3-3.9
				c0.4-1.6,0.7-3.5,0.7-5.9V78.8c0-2.3-0.2-4.2-0.7-5.8C256.6,71.3,255.9,70,254.8,69.1z M249.6,89.9c0,1.2-0.1,2.2-0.3,2.9
				c-0.2,0.8-0.5,1.4-1,1.8c-0.5,0.4-1.1,0.8-1.9,0.9c-0.8,0.2-1.8,0.2-3,0.2h-13.2c-1.3,0-2.3-0.1-3.1-0.2
				c-0.8-0.2-1.4-0.5-1.9-0.9c-0.5-0.4-0.8-1.1-0.9-1.8c-0.2-0.8-0.2-1.7-0.2-2.9V79.2c0-1.1,0.1-2.1,0.2-2.8
				c0.2-0.8,0.5-1.4,0.9-1.8c0.5-0.5,1.1-0.8,1.9-1c0.8-0.2,1.9-0.3,3.1-0.3h13.2c1.2,0,2.2,0.1,3,0.3c0.8,0.2,1.4,0.5,1.9,1
				c0.5,0.5,0.8,1.1,1,1.8c0.2,0.8,0.3,1.7,0.3,2.8V89.9z"/>
			<path class="st1" d="M421.8,83.8l19.9-17.6h-11.1l-14.7,13l-13.9-13h-11.7H361c-2.7,0-4.9,0.2-6.7,0.7c-1.8,0.4-3.2,1.2-4.3,2.1
				c-1.1,1-1.8,2.3-2.3,3.9c-0.4,1.6-0.7,3.6-0.7,5.8v11.5c0,2.2,0.2,4,0.6,5.6h-26.3c-1.3,0-2.3-0.1-3.2-0.3c-0.8-0.2-1.5-0.6-2-1
				c-0.5-0.5-0.8-1.1-1-1.8c-0.2-0.7-0.3-1.6-0.3-2.7V66.3h-28.7h-8.6c-2.7,0-4.9,0.2-6.7,0.7c-1.8,0.4-3.2,1.2-4.3,2.1
				c-1.1,1-1.8,2.3-2.3,3.9c-0.4,1.6-0.7,3.6-0.7,5.8v24h8.1V89.1h20.2v-6.9h-20.2v-2.9c0-2.1,0.4-3.7,1.3-4.6
				c0.9-0.9,2.5-1.4,4.7-1.4h8.4h20.6v17c0,2.3,0.2,4.3,0.7,5.9c0.4,1.6,1.2,2.9,2.3,3.9c1.1,1,2.5,1.7,4.3,2.1
				c1.8,0.4,4,0.7,6.7,0.7H361h25.5v-6.9H361v-0.1h-1.5c-0.5,0-1-0.1-1.4-0.2c-0.8-0.2-1.4-0.5-1.8-0.9c-0.4-0.4-0.7-1-0.9-1.7
				c-0.2-0.7-0.2-1.6-0.2-2.7v-2.6h22.6l0.5-6.5h-23.1v-2.5c0-1.1,0.1-2,0.2-2.7c0.2-0.7,0.5-1.3,0.9-1.7c0.4-0.4,1-0.7,1.8-0.9
				c0.7-0.2,1.7-0.3,2.9-0.3h37L410,83.9l-21,18.9h11.4l15-14l15.1,14h11.8L421.8,83.8z"/>
		</g>
		<linearGradient id="SVGID_2_" gradientUnits="userSpaceOnUse" x1="441.3281" y1="85.7031" x2="459.0117" y2="85.7031">
			<stop  offset="0" style="stop-color:#3993FF"/>
			<stop  offset="0.9952" style="stop-color:#0071BC"/>
		</linearGradient>
		<path class="st2" d="M441.3,88.9v-6.3H459v6.3H441.3z"/>
		<path class="st3" d="M469.8,90.1v6h-4.7V75H482c1.5,0,2.8,0.1,3.8,0.4c1,0.2,1.8,0.6,2.4,1.2c0.6,0.5,1.1,1.3,1.3,2.1
			c0.3,0.9,0.4,1.9,0.4,3.2v1.8c0,1.3-0.1,2.3-0.4,3.1c-0.2,0.8-0.7,1.5-1.3,2c-0.6,0.5-1.4,0.8-2.4,1c-1,0.2-2.3,0.3-3.8,0.3H469.8
			z M485.2,82c0-1.1-0.2-1.9-0.7-2.3c-0.5-0.4-1.4-0.6-2.6-0.6h-12v7.2h12.1c1.2,0,2.1-0.2,2.6-0.6c0.5-0.4,0.7-1.1,0.7-2.2V82z"/>
		<path class="st3" d="M510.9,91.2h-14.6l-3,4.8H488l12.2-19.5c0.4-0.6,0.8-1.1,1.3-1.5c0.5-0.4,1.3-0.6,2.2-0.6
			c0.9,0,1.7,0.2,2.2,0.6c0.5,0.4,1,0.9,1.3,1.5l12.2,19.5H514L510.9,91.2z M498.5,87.6h10.2l-5.1-8.3L498.5,87.6z"/>
		<path class="st3" d="M528.2,96.1c-1.5,0-2.8-0.1-3.9-0.4c-1-0.3-1.9-0.7-2.5-1.2c-0.6-0.6-1.1-1.3-1.3-2.2c-0.3-0.9-0.4-2-0.4-3.4
			v-6.6c0-1.3,0.1-2.4,0.4-3.4c0.3-0.9,0.7-1.7,1.3-2.2c0.6-0.6,1.4-1,2.5-1.2c1-0.3,2.3-0.4,3.9-0.4h8c1.6,0,2.9,0.1,3.9,0.4
			c1,0.3,1.8,0.7,2.5,1.2c0.6,0.6,1.1,1.3,1.3,2.2c0.3,0.9,0.4,2.1,0.4,3.4v6.6c0,1.3-0.1,2.5-0.4,3.4c-0.3,0.9-0.7,1.7-1.3,2.2
			c-0.6,0.6-1.4,1-2.5,1.2c-1,0.3-2.3,0.4-3.9,0.4H528.2z M539.5,82.5c0-0.7-0.1-1.2-0.2-1.6c-0.1-0.4-0.3-0.8-0.6-1
			c-0.3-0.3-0.6-0.5-1.1-0.6c-0.5-0.1-1-0.2-1.7-0.2h-7.6c-0.7,0-1.3,0.1-1.8,0.2c-0.5,0.1-0.8,0.3-1.1,0.6c-0.3,0.3-0.5,0.6-0.5,1
			c-0.1,0.4-0.1,1-0.1,1.6v6.2c0,0.7,0,1.2,0.1,1.7c0.1,0.4,0.3,0.8,0.5,1.1c0.3,0.3,0.6,0.4,1.1,0.5c0.5,0.1,1.1,0.1,1.8,0.1h7.6
			c0.7,0,1.2,0,1.7-0.1c0.5-0.1,0.8-0.3,1.1-0.5c0.3-0.3,0.5-0.6,0.6-1.1c0.1-0.4,0.2-1,0.2-1.7V82.5z"/>
	</g>
</g>
</svg>
