<?xml version="1.0" encoding="utf-8"?>
<!-- Generator: Adobe Illustrator 22.0.1, SVG Export Plug-In . SVG Version: 6.00 Build 0)  -->
<svg version="1.1" id="Capa_1" xmlns="http://www.w3.org/2000/svg" xmlns:xlink="http://www.w3.org/1999/xlink" x="0px" y="0px"
	 viewBox="0 0 566.9 566.9" style="enable-background:new 0 0 566.9 566.9;" xml:space="preserve">
<style type="text/css">
	.st0{fill:#3993FF;}
</style>
<g>
	<path class="st0" d="M523.5,43.4C472.2-8,388.6-8,337.2,43.4L244,136.6c-7.9,7.9-7.9,20.7,0,28.7c7.9,7.9,20.7,7.9,28.7,0
		l93.2-93.2c17.1-17.1,40-26.6,64.5-26.6c24.5,0,47.4,9.4,64.5,26.6s26.6,40,26.6,64.5c0,24.4-9.4,47.4-26.6,64.5L373,322.9
		c-35.6,35.6-93.4,35.6-129,0c-7.9-7.9-20.7-7.9-28.7,0c-7.9,7.9-7.9,20.8,0,28.7c25.7,25.7,59.4,38.5,93.2,38.5
		s67.5-12.8,93.2-38.5l121.8-121.8c24.8-24.8,38.5-57.9,38.5-93.2C562,101.3,548.3,68.2,523.5,43.4z"/>
	<path class="st0" d="M279.9,416.1L201,494.9c-17.1,17.1-40,26.6-64.5,26.6c-24.4,0-47.4-9.4-64.5-26.6c-35.6-35.6-35.6-93.4,0-129
		l114.7-114.7c17.1-17.1,40-26.6,64.5-26.6c24.4,0,47.4,9.4,64.5,26.6c7.9,7.9,20.7,7.9,28.7,0c7.9-7.9,7.9-20.7,0-28.7
		c-51.4-51.4-134.9-51.4-186.3,0L43.4,337.2C18.6,362,4.9,395.1,4.9,430.4c0,35.3,13.7,68.4,38.5,93.2
		c24.8,24.8,57.9,38.5,93.2,38.5c35.3,0,68.4-13.7,93.2-38.5l78.8-78.8c7.9-7.9,7.9-20.7,0-28.7
		C300.6,408.1,287.8,408.1,279.9,416.1z"/>
	<path class="st0" d="M349.5,450.9c-11.2,0-20.3,9.1-20.3,20.3V532c0,11.2,9.1,20.3,20.3,20.3s20.3-9.1,20.3-20.3v-60.8
		C369.8,460,360.7,450.9,349.5,450.9z"/>
	<path class="st0" d="M422.2,436.6c-7.9-7.9-20.7-7.9-28.7,0c-7.9,7.9-7.9,20.7,0,28.7l43,43c4,4,9.1,5.9,14.3,5.9
		c5.2,0,10.4-2,14.3-5.9c7.9-7.9,7.9-20.7,0-28.7L422.2,436.6z"/>
	<path class="st0" d="M470.8,369.8H410c-11.2,0-20.3,9.1-20.3,20.3s9.1,20.3,20.3,20.3h60.8c11.2,0,20.3-9.1,20.3-20.3
		S482,369.8,470.8,369.8z"/>
	<path class="st0" d="M187.3,136.7c11.2,0,20.3-9.1,20.3-20.3V55.6c0-11.2-9.1-20.3-20.3-20.3s-20.3,9.1-20.3,20.3v60.8
		C167.1,127.6,176.2,136.7,187.3,136.7z"/>
	<path class="st0" d="M112.2,151c4,4,9.1,5.9,14.3,5.9s10.4-2,14.3-5.9c7.9-7.9,7.9-20.7,0-28.7l-43-43c-7.9-7.9-20.7-7.9-28.7,0
		s-7.9,20.7,0,28.7L112.2,151z"/>
	<path class="st0" d="M65.4,217.8h60.8c11.2,0,20.3-9.1,20.3-20.3c0-11.2-9.1-20.3-20.3-20.3H65.4c-11.2,0-20.3,9.1-20.3,20.3
		C45.1,208.7,54.2,217.8,65.4,217.8z"/>
</g>
</svg>
