<?xml version="1.0" encoding="utf-8"?>
<!-- Generator: Adobe Illustrator 22.0.1, SVG Export Plug-In . SVG Version: 6.00 Build 0)  -->
<svg version="1.1" id="Capa_1" xmlns="http://www.w3.org/2000/svg" xmlns:xlink="http://www.w3.org/1999/xlink" x="0px" y="0px"
	 viewBox="0 0 566.9 566.9" style="enable-background:new 0 0 566.9 566.9;" xml:space="preserve">
<style type="text/css">
	.st0{fill:none;stroke:#D2D6DD;stroke-width:2.921;stroke-linecap:round;stroke-miterlimit:10;}
	.st1{clip-path:url(#SVGID_2_);}
	.st2{clip-path:url(#SVGID_4_);fill:#EAEAEC;}
	.st3{clip-path:url(#SVGID_6_);}
	.st4{clip-path:url(#SVGID_8_);fill:#EAEAEC;}
	.st5{clip-path:url(#SVGID_10_);}
	.st6{clip-path:url(#SVGID_12_);fill:#D1D6DD;}
	.st7{clip-path:url(#SVGID_14_);}
	.st8{clip-path:url(#SVGID_16_);fill:#EAEAEC;}
	.st9{clip-path:url(#SVGID_18_);}
	.st10{clip-path:url(#SVGID_20_);fill:#EAEAEC;}
	.st11{clip-path:url(#SVGID_22_);}
	.st12{clip-path:url(#SVGID_24_);fill:#DFE0EC;}
	.st13{clip-path:url(#SVGID_26_);}
	.st14{clip-path:url(#SVGID_28_);fill:#E7E9F0;}
	.st15{clip-path:url(#SVGID_30_);}
	.st16{clip-path:url(#SVGID_32_);fill:#D7D9E8;}
	.st17{clip-path:url(#SVGID_34_);}
	.st18{clip-path:url(#SVGID_36_);fill:#F0F1F6;}
	.st19{clip-path:url(#SVGID_38_);}
	.st20{clip-path:url(#SVGID_40_);fill:#DFE0EC;}
	.st21{clip-path:url(#SVGID_42_);}
	.st22{clip-path:url(#SVGID_44_);fill:#DFE0EC;}
	.st23{clip-path:url(#SVGID_46_);}
	.st24{clip-path:url(#SVGID_48_);fill:#DFE0EC;}
	.st25{fill-rule:evenodd;clip-rule:evenodd;fill:#3993FF;}
	.st26{clip-path:url(#SVGID_50_);}
	.st27{clip-path:url(#SVGID_52_);fill:#DFE0EC;}
	.st28{clip-path:url(#SVGID_54_);}
	.st29{clip-path:url(#SVGID_56_);fill:#DFE0EC;}
	.st30{clip-path:url(#SVGID_58_);}
	.st31{opacity:0.1;clip-path:url(#SVGID_60_);fill:#FFFFFF;}
	.st32{clip-path:url(#SVGID_62_);}
	.st33{clip-path:url(#SVGID_64_);fill:#DFE0EC;}
	.st34{clip-path:url(#SVGID_66_);}
	.st35{clip-path:url(#SVGID_68_);fill:#DFE0EC;}
	.st36{clip-path:url(#SVGID_70_);}
	.st37{clip-path:url(#SVGID_72_);fill:#105FAF;}
	.st38{fill-rule:evenodd;clip-rule:evenodd;fill:#105FAF;}
	.st39{clip-path:url(#SVGID_74_);}
	.st40{opacity:0.5;clip-path:url(#SVGID_76_);fill:#FFFFFF;}
	.st41{clip-path:url(#SVGID_78_);}
	.st42{opacity:0.5;clip-path:url(#SVGID_80_);fill:#FFFFFF;}
</style>
<g>
	<line class="st0" x1="38.2" y1="271.8" x2="38.2" y2="277.6"/>
	<line class="st0" x1="25.2" y1="275" x2="29.9" y2="279.9"/>
	<line class="st0" x1="19.7" y1="287.9" x2="26.4" y2="287.9"/>
	<line class="st0" x1="24.7" y1="301.1" x2="29.4" y2="296.3"/>
	<line class="st0" x1="38.2" y1="302.7" x2="38.2" y2="296.9"/>
	<line class="st0" x1="47.9" y1="298.9" x2="44" y2="295"/>
	<line class="st0" x1="55.6" y1="289.2" x2="49.8" y2="289.2"/>
	<line class="st0" x1="51.7" y1="275.7" x2="47.9" y2="279.6"/>
	<line class="st0" x1="273.5" y1="7.9" x2="273.5" y2="11.8"/>
	<line class="st0" x1="261.9" y1="19.5" x2="265.8" y2="19.5"/>
	<line class="st0" x1="273.5" y1="31.1" x2="273.5" y2="27.2"/>
	<line class="st0" x1="283.2" y1="19.5" x2="279.3" y2="19.5"/>
	<line class="st0" x1="45.7" y1="165" x2="45.7" y2="170.8"/>
	<line class="st0" x1="28.3" y1="182.3" x2="34.1" y2="182.3"/>
	<line class="st0" x1="45.7" y1="197.8" x2="45.7" y2="192"/>
	<line class="st0" x1="61.1" y1="182.3" x2="55.3" y2="182.3"/>
	<path class="st0" d="M509.6,471.6c4.6,0,8.4,3.7,8.4,8.4c0,4.6-3.7,8.4-8.4,8.4c-4.6,0-8.4-3.7-8.4-8.4"/>
	<g>
		<defs>
			<path id="SVGID_1_" d="M503.2,304.6c5-1.5,12.6-7.6,14.3-14.1c1.6,5.8,8.3,12.6,14.3,13.1c-6.8,2.4-13.3,9.6-14.3,15.2
				C516.9,313,507.9,305.4,503.2,304.6"/>
		</defs>
		<clipPath id="SVGID_2_">
			<use xlink:href="#SVGID_1_"  style="overflow:visible;"/>
		</clipPath>
		<g class="st1">
			<defs>
				<rect id="SVGID_3_" x="-100.8" y="-223.6" width="723.6" height="1566.8"/>
			</defs>
			<clipPath id="SVGID_4_">
				<use xlink:href="#SVGID_3_"  style="overflow:visible;"/>
			</clipPath>
			<rect x="493.6" y="280.8" class="st2" width="47.9" height="47.6"/>
		</g>
	</g>
	<g>
		<defs>
			<path id="SVGID_5_" d="M31,410c2.5-0.8,6.3-3.8,7.2-7.1c0.8,2.9,4.1,6.3,7.2,6.6c-3.4,1.2-6.6,4.8-7.2,7.6
				C37.8,414.2,33.3,410.4,31,410"/>
		</defs>
		<clipPath id="SVGID_6_">
			<use xlink:href="#SVGID_5_"  style="overflow:visible;"/>
		</clipPath>
		<g class="st3">
			<defs>
				<rect id="SVGID_7_" x="-64.1" y="-191.5" width="723.6" height="1566.8"/>
			</defs>
			<clipPath id="SVGID_8_">
				<use xlink:href="#SVGID_7_"  style="overflow:visible;"/>
			</clipPath>
			<rect x="21.4" y="393.3" class="st4" width="33.6" height="33.4"/>
		</g>
	</g>
	<g>
		<defs>
			<path id="SVGID_9_" d="M66,62c0,3.6-2.9,6.5-6.5,6.5c-3.6,0-6.5-2.9-6.5-6.5c0-3.6,2.9-6.5,6.5-6.5C63.1,55.5,66,58.4,66,62"/>
		</defs>
		<clipPath id="SVGID_10_">
			<use xlink:href="#SVGID_9_"  style="overflow:visible;"/>
		</clipPath>
		<g class="st5">
			<defs>
				<rect id="SVGID_11_" x="-75.1" y="-271" width="723.6" height="1566.8"/>
			</defs>
			<clipPath id="SVGID_12_">
				<use xlink:href="#SVGID_11_"  style="overflow:visible;"/>
			</clipPath>
			<rect x="43.4" y="45.9" class="st6" width="32.2" height="32.2"/>
		</g>
	</g>
	<g>
		<defs>
			<path id="SVGID_13_" d="M430.6,59c0,6-4.8,10.8-10.8,10.8c-6,0-10.8-4.8-10.8-10.8c0-6,4.8-10.8,10.8-10.8
				C425.8,48.2,430.6,53,430.6,59"/>
		</defs>
		<clipPath id="SVGID_14_">
			<use xlink:href="#SVGID_13_"  style="overflow:visible;"/>
		</clipPath>
		<g class="st7">
			<defs>
				<rect id="SVGID_15_" x="-142.9" y="-291.4" width="723.6" height="1566.8"/>
			</defs>
			<clipPath id="SVGID_16_">
				<use xlink:href="#SVGID_15_"  style="overflow:visible;"/>
			</clipPath>
			<rect x="399.4" y="38.5" class="st8" width="40.9" height="40.9"/>
		</g>
	</g>
	<g>
		<defs>
			<path id="SVGID_17_" d="M468,179c0,4.7-3.8,8.6-8.6,8.6c-4.7,0-8.6-3.8-8.6-8.6c0-4.7,3.8-8.6,8.6-8.6
				C464.2,170.4,468,174.3,468,179"/>
		</defs>
		<clipPath id="SVGID_18_">
			<use xlink:href="#SVGID_17_"  style="overflow:visible;"/>
		</clipPath>
		<g class="st9">
			<defs>
				<rect id="SVGID_19_" x="-255.4" y="-142.1" width="723.6" height="1566.8"/>
			</defs>
			<clipPath id="SVGID_20_">
				<use xlink:href="#SVGID_19_"  style="overflow:visible;"/>
			</clipPath>
			<rect x="441.2" y="160.8" class="st10" width="36.5" height="36.5"/>
		</g>
	</g>
	<path class="st0" d="M161.3,498.5c0,3-2.4,5.4-5.4,5.4c-3,0-5.4-2.4-5.4-5.4c0-3,2.4-5.4,5.4-5.4
		C158.9,493.1,161.3,495.5,161.3,498.5z"/>
	<circle class="st0" cx="151.6" cy="67.8" r="6.5"/>
	<path class="st0" d="M323.2,558.5c-4.1,1.6-8.8-0.5-10.3-4.6c-1.6-4.1,0.5-8.8,4.6-10.3c4.1-1.6,8.8,0.5,10.3,4.6
		C329.5,552.3,327.4,556.9,323.2,558.5z"/>
	<g>
		<defs>
			<path id="SVGID_21_" d="M320.8,405.4H162.5c-11.1,0-20.3-9.1-20.3-20.3V159.4c0-11.2,9.1-20.3,20.3-20.3h158.2
				c11.1,0,20.3,9.1,20.3,20.3v225.6C341,396.2,331.9,405.4,320.8,405.4"/>
		</defs>
		<clipPath id="SVGID_22_">
			<use xlink:href="#SVGID_21_"  style="overflow:visible;"/>
		</clipPath>
		<g class="st11">
			<defs>
				<rect id="SVGID_23_" x="-100.8" y="-223.6" width="723.6" height="1566.8"/>
			</defs>
			<clipPath id="SVGID_24_">
				<use xlink:href="#SVGID_23_"  style="overflow:visible;"/>
			</clipPath>
			<rect x="132.6" y="129.5" class="st12" width="218" height="285.6"/>
		</g>
	</g>
	<g>
		<defs>
			<path id="SVGID_25_" d="M307.3,415H149c-11.1,0-20.3-9.1-20.3-20.3V169.1c0-11.2,9.1-20.3,20.3-20.3h158.2
				c11.1,0,20.3,9.1,20.3,20.3v225.6C327.5,405.9,318.4,415,307.3,415"/>
		</defs>
		<clipPath id="SVGID_26_">
			<use xlink:href="#SVGID_25_"  style="overflow:visible;"/>
		</clipPath>
		<g class="st13">
			<defs>
				<rect id="SVGID_27_" x="-100.8" y="-223.6" width="723.6" height="1566.8"/>
			</defs>
			<clipPath id="SVGID_28_">
				<use xlink:href="#SVGID_27_"  style="overflow:visible;"/>
			</clipPath>
			<rect x="119.1" y="139.1" class="st14" width="218" height="285.6"/>
		</g>
	</g>
	<g>
		<defs>
			<path id="SVGID_29_" d="M294.1,422.7H135.6c-11.2,0-20.3-9.1-20.3-20.2V177.7c0-11.1,9.1-20.2,20.3-20.2h158.6
				c11.2,0,20.3,9.1,20.3,20.2v224.7C314.4,413.5,305.3,422.7,294.1,422.7"/>
		</defs>
		<clipPath id="SVGID_30_">
			<use xlink:href="#SVGID_29_"  style="overflow:visible;"/>
		</clipPath>
		<g class="st15">
			<defs>
				<rect id="SVGID_31_" x="-100.8" y="-223.6" width="723.6" height="1566.8"/>
			</defs>
			<clipPath id="SVGID_32_">
				<use xlink:href="#SVGID_31_"  style="overflow:visible;"/>
			</clipPath>
			<rect x="105.6" y="147.8" class="st16" width="218.5" height="284.5"/>
		</g>
	</g>
	<g>
		<defs>
			<path id="SVGID_33_" d="M294.1,422.7H135.6c-11.2,0-20.3-9.1-20.3-20.2V177.7c0-11.1,9.1-20.2,20.3-20.2h158.6
				c11.2,0,20.3,9.1,20.3,20.2v224.7C314.4,413.5,305.3,422.7,294.1,422.7"/>
		</defs>
		<clipPath id="SVGID_34_">
			<use xlink:href="#SVGID_33_"  style="overflow:visible;"/>
		</clipPath>
		<g class="st17">
			<defs>
				<rect id="SVGID_35_" x="-100.8" y="-223.6" width="723.6" height="1566.8"/>
			</defs>
			<clipPath id="SVGID_36_">
				<use xlink:href="#SVGID_35_"  style="overflow:visible;"/>
			</clipPath>
			<rect x="105.6" y="147.8" class="st18" width="218.5" height="284.5"/>
		</g>
	</g>
	<g>
		<defs>
			<path id="SVGID_37_" d="M271.3,225.9H154.2c-3.3,0-6.1-2.6-6.1-5.8c0-3.2,2.7-5.8,6.1-5.8h117.1c3.3,0,6.1,2.6,6.1,5.8
				C277.4,223.3,274.6,225.9,271.3,225.9"/>
		</defs>
		<clipPath id="SVGID_38_">
			<use xlink:href="#SVGID_37_"  style="overflow:visible;"/>
		</clipPath>
		<g class="st19">
			<defs>
				<rect id="SVGID_39_" x="-100.8" y="-223.6" width="723.6" height="1566.8"/>
			</defs>
			<clipPath id="SVGID_40_">
				<use xlink:href="#SVGID_39_"  style="overflow:visible;"/>
			</clipPath>
			<rect x="138.4" y="204.7" class="st20" width="148.6" height="30.9"/>
		</g>
	</g>
	<g>
		<defs>
			<path id="SVGID_41_" d="M271.3,260.7H154.2c-3.3,0-6.1-2.6-6.1-5.8c0-3.2,2.7-5.8,6.1-5.8h117.1c3.3,0,6.1,2.6,6.1,5.8
				C277.4,258.1,274.6,260.7,271.3,260.7"/>
		</defs>
		<clipPath id="SVGID_42_">
			<use xlink:href="#SVGID_41_"  style="overflow:visible;"/>
		</clipPath>
		<g class="st21">
			<defs>
				<rect id="SVGID_43_" x="-100.8" y="-223.6" width="723.6" height="1566.8"/>
			</defs>
			<clipPath id="SVGID_44_">
				<use xlink:href="#SVGID_43_"  style="overflow:visible;"/>
			</clipPath>
			<rect x="138.4" y="239.4" class="st22" width="148.6" height="30.9"/>
		</g>
	</g>
	<g>
		<defs>
			<path id="SVGID_45_" d="M271.3,295.4H154.2c-3.3,0-6.1-2.6-6.1-5.8c0-3.2,2.7-5.8,6.1-5.8h117.1c3.3,0,6.1,2.6,6.1,5.8
				C277.4,292.8,274.6,295.4,271.3,295.4"/>
		</defs>
		<clipPath id="SVGID_46_">
			<use xlink:href="#SVGID_45_"  style="overflow:visible;"/>
		</clipPath>
		<g class="st23">
			<defs>
				<rect id="SVGID_47_" x="-100.8" y="-223.6" width="723.6" height="1566.8"/>
			</defs>
			<clipPath id="SVGID_48_">
				<use xlink:href="#SVGID_47_"  style="overflow:visible;"/>
			</clipPath>
			<rect x="138.4" y="274.2" class="st24" width="148.6" height="30.9"/>
		</g>
	</g>
	<path class="st25" d="M467.7,445.8l-1.3,1.3c-8.7,8.7-22.9,8.7-31.6,0l-80.2-80.2l32.9-32.9l80.2,80.2
		C476.4,422.9,476.4,437.1,467.7,445.8"/>
	<g>
		<defs>
			<path id="SVGID_49_" d="M271.3,330.1H154.2c-3.3,0-6.1-2.6-6.1-5.8c0-3.2,2.7-5.8,6.1-5.8h117.1c3.3,0,6.1,2.6,6.1,5.8
				C277.4,327.5,274.6,330.1,271.3,330.1"/>
		</defs>
		<clipPath id="SVGID_50_">
			<use xlink:href="#SVGID_49_"  style="overflow:visible;"/>
		</clipPath>
		<g class="st26">
			<defs>
				<rect id="SVGID_51_" x="-100.8" y="-223.6" width="723.6" height="1566.8"/>
			</defs>
			<clipPath id="SVGID_52_">
				<use xlink:href="#SVGID_51_"  style="overflow:visible;"/>
			</clipPath>
			<rect x="138.4" y="308.9" class="st27" width="148.6" height="30.9"/>
		</g>
	</g>
	<g>
		<defs>
			<path id="SVGID_53_" d="M215.3,364.9h-61.1c-3.4,0-6.1-2.6-6.1-5.8c0-3.2,2.7-5.8,6.1-5.8h61.1c3.4,0,6.1,2.6,6.1,5.8
				C221.4,362.3,218.7,364.9,215.3,364.9"/>
		</defs>
		<clipPath id="SVGID_54_">
			<use xlink:href="#SVGID_53_"  style="overflow:visible;"/>
		</clipPath>
		<g class="st28">
			<defs>
				<rect id="SVGID_55_" x="-100.8" y="-223.6" width="723.6" height="1566.8"/>
			</defs>
			<clipPath id="SVGID_56_">
				<use xlink:href="#SVGID_55_"  style="overflow:visible;"/>
			</clipPath>
			<rect x="138.4" y="343.6" class="st29" width="92.6" height="30.9"/>
		</g>
	</g>
	<g>
		<defs>
			<path id="SVGID_57_" d="M338.6,320c-23.4,23.4-59.7,26.1-86,8c-3.4-2.4-6.6-5-9.6-8c-1.5-1.5-3-3.1-4.4-4.8
				c-2.7-3.3-5.1-6.9-7.1-10.5c-3.5-6.2-5.8-12.8-7.1-19.5c-4.1-21.3,2-44.2,18.5-60.6c16.5-16.5,39.4-22.6,60.7-18.6
				c6.8,1.3,13.4,3.7,19.5,7.1c3.7,2,7.2,4.4,10.5,7.1c1.7,1.4,3.2,2.8,4.8,4.3c3,3,5.7,6.2,8,9.5C364.7,260.4,362,296.6,338.6,320"
				/>
		</defs>
		<clipPath id="SVGID_58_">
			<use xlink:href="#SVGID_57_"  style="overflow:visible;"/>
		</clipPath>
		<g class="st30">
			<defs>
				<rect id="SVGID_59_" x="-100.8" y="-223.6" width="723.6" height="1566.8"/>
			</defs>
			<clipPath id="SVGID_60_">
				<use xlink:href="#SVGID_59_"  style="overflow:visible;"/>
			</clipPath>
			<rect x="213.7" y="195.1" class="st31" width="154.4" height="154.4"/>
		</g>
	</g>
	<g>
		<defs>
			<path id="SVGID_61_" d="M344.6,214.7c-31.3-31.3-82-31.3-113.2,0c-31.3,31.3-31.3,82,0,113.3c28.5,28.5,73.1,31,104.5,7.7
				c3.1-2.3,6-4.8,8.8-7.7c2.8-2.8,5.4-5.8,7.7-8.8C375.6,287.7,373,243.1,344.6,214.7 M332.1,315.4c-24.4,24.4-63.8,24.4-88.2,0
				c-24.3-24.3-24.3-63.8,0-88.2c24.3-24.3,63.8-24.3,88.2,0C356.4,251.5,356.4,291,332.1,315.4"/>
		</defs>
		<clipPath id="SVGID_62_">
			<use xlink:href="#SVGID_61_"  style="overflow:visible;"/>
		</clipPath>
		<g class="st32">
			<defs>
				<rect id="SVGID_63_" x="-100.8" y="-223.6" width="723.6" height="1566.8"/>
			</defs>
			<clipPath id="SVGID_64_">
				<use xlink:href="#SVGID_63_"  style="overflow:visible;"/>
			</clipPath>
			<rect x="198.3" y="181.6" class="st33" width="179.4" height="179.4"/>
		</g>
	</g>
	<g>
		<defs>
			<path id="SVGID_65_" d="M354,316.6l23.7,23.7l-16.8,16.8l-23.7-23.7c3.1-2.3,6.1-4.9,9-7.8C349.1,322.8,351.7,319.8,354,316.6"/>
		</defs>
		<clipPath id="SVGID_66_">
			<use xlink:href="#SVGID_65_"  style="overflow:visible;"/>
		</clipPath>
		<g class="st34">
			<defs>
				<rect id="SVGID_67_" x="-100.8" y="-223.6" width="723.6" height="1566.8"/>
			</defs>
			<clipPath id="SVGID_68_">
				<use xlink:href="#SVGID_67_"  style="overflow:visible;"/>
			</clipPath>
			<rect x="327.5" y="307" class="st35" width="59.8" height="59.8"/>
		</g>
	</g>
	<g>
		<defs>
			
				<rect id="SVGID_69_" x="424" y="422.4" transform="matrix(0.7072 -0.7071 0.7071 0.7072 -170.6926 441.1031)" width="46.2" height="8.3"/>
		</defs>
		<use xlink:href="#SVGID_69_"  style="overflow:visible;fill-rule:evenodd;clip-rule:evenodd;fill:#105FAF;"/>
		<clipPath id="SVGID_70_">
			<use xlink:href="#SVGID_69_"  style="overflow:visible;"/>
		</clipPath>
		<g class="st36">
			<defs>
				<rect id="SVGID_71_" x="-100.8" y="-223.6" width="723.6" height="1566.8"/>
			</defs>
			<use xlink:href="#SVGID_71_"  style="overflow:visible;fill:#105FAF;"/>
			<clipPath id="SVGID_72_">
				<use xlink:href="#SVGID_71_"  style="overflow:visible;"/>
			</clipPath>
			<rect x="418.2" y="397.7" class="st37" width="57.9" height="57.9"/>
		</g>
	</g>
	
		<rect x="346.2" y="345.9" transform="matrix(0.7071 -0.7071 0.7071 0.7071 -138.7211 363.9672)" class="st38" width="47.5" height="7.1"/>
	<g>
		<defs>
			<path id="SVGID_73_" d="M316,218.8l-82.4,82.4c-3.1-5.6-5.2-11.5-6.4-17.6l71.2-71.2C304.5,213.6,310.4,215.7,316,218.8"/>
		</defs>
		<clipPath id="SVGID_74_">
			<use xlink:href="#SVGID_73_"  style="overflow:visible;"/>
		</clipPath>
		<g class="st39">
			<defs>
				<rect id="SVGID_75_" x="-100.8" y="-223.6" width="723.6" height="1566.8"/>
			</defs>
			<clipPath id="SVGID_76_">
				<use xlink:href="#SVGID_75_"  style="overflow:visible;"/>
			</clipPath>
			<rect x="217.5" y="202.8" class="st40" width="108.1" height="108.1"/>
		</g>
	</g>
	<g>
		<defs>
			<path id="SVGID_77_" d="M343,238.4l-89.1,84c-3.2-2.1-6.2-4.5-9.1-7.1c-1.5-1.4-2.8-2.8-4.1-4.3l90.2-85.1
				c1.6,1.2,3.1,2.5,4.5,3.9C338.2,232.5,340.8,235.4,343,238.4"/>
		</defs>
		<clipPath id="SVGID_78_">
			<use xlink:href="#SVGID_77_"  style="overflow:visible;"/>
		</clipPath>
		<g class="st41">
			<defs>
				<rect id="SVGID_79_" x="-100.8" y="-223.6" width="723.6" height="1566.8"/>
			</defs>
			<clipPath id="SVGID_80_">
				<use xlink:href="#SVGID_79_"  style="overflow:visible;"/>
			</clipPath>
			<rect x="231.1" y="216.3" class="st42" width="121.6" height="115.8"/>
		</g>
	</g>
</g>
</svg>
